<?xml version="1.0" encoding="utf-8"?>
<!-- Generator: Adobe Illustrator 16.0.0, SVG Export Plug-In . SVG Version: 6.00 Build 0)  -->
<!DOCTYPE svg PUBLIC "-//W3C//DTD SVG 1.1//EN" "http://www.w3.org/Graphics/SVG/1.1/DTD/svg11.dtd">
<svg version="1.1" id="Camada_1" xmlns="http://www.w3.org/2000/svg" xmlns:xlink="http://www.w3.org/1999/xlink" x="0px" y="0px"
	 width="1700.789px" height="1133.859px" viewBox="0 0 1700.789 1133.859" enable-background="new 0 0 1700.789 1133.859"
	 xml:space="preserve">
<g>
	<path fill="#FFFFFF" d="M467.834,335.259C264.781,335.259,0,474.409,0,657.182c0,81.962,92.521,141.42,222.642,141.42
		c229.401,0,470.844-171.474,470.844-310.624C693.486,370.591,573.922,335.259,467.834,335.259z M526.504,659.45
		c-89.511,66.959-212.87,114.331-330.211,114.331S36.86,730.16,36.86,665.47c0-149.708,254.223-309.142,479.133-309.142
		c75.202,0,137.623,39.87,137.623,109.052C653.615,541.369,588.185,612.819,526.504,659.45L526.504,659.45z"/>
	<path fill="#FFFFFF" d="M470.844,369.108c-160.961,0-344.474,174.483-344.474,299.372c0,63.949,54.132,90.251,100.81,90.251
		c179.021,0,351.234-174.482,351.234-300.112C578.414,393.188,523.494,369.108,470.844,369.108z M245.193,725.622
		c-60.939,0-97.012-31.581-97.012-81.962c0-141.42,227.92-241.442,304.604-241.442c46.631,0,105.301,18.06,105.301,82.75
		c0,110.58-179.762,240.701-312.893,240.701V725.622z"/>
	<path fill="#FFFFFF" d="M400.921,455.609c-100.021,0-218.104,63.949-218.104,147.439c0,55.66,71.451,72.979,115.813,72.979
		c66.172,0,134.613-21.811,181.29-69.97c19.541-20.328,38.342-47.371,38.342-75.942c0-60.939-70.71-74.461-117.341-74.461V455.609z
		 M315.161,648.893c-50.381,0-116.6-22.552-116.6-64.69c0-56.401,111.321-101.55,186.522-101.55
		c40.611,0,115.813,15.05,115.813,63.949s-95.53,102.291-185.781,102.291H315.161z"/>
	<path fill="#FFFFFF" d="M312.893,507.519c-21.811,0-60.198,9.03-60.198,35.332c0,57.188,94.789,82.75,137.669,82.75
		c21.811,0,52.65-12.04,52.65-36.119C443.014,533.821,364.015,507.519,312.893,507.519L312.893,507.519z M372.304,615.83
		c-36.119,0-94.002-26.303-94.002-66.96c0-21.069,16.531-32.321,43.62-32.321c36.86,0,95.53,30.099,95.53,66.959
		C417.452,603.836,397.911,615.83,372.304,615.83z"/>
</g>
<g>
	<path fill="#FFFFFF" d="M1612.761,501.499c-40.61,0-73.72,16.531-88.77,42.88v-35.332h-55.66V705.34h55.66V587.999
		c15.05-27.83,42.093-41.352,69.923-41.352c33.85,0,51.169,18.06,51.169,48.899V705.34h55.66V591.01
		C1700.743,539.841,1669.903,501.499,1612.761,501.499L1612.761,501.499z"/>
	<path fill="#FFFFFF" d="M1050.138,501.499c-42.14,0-74.461,16.531-89.511,38.388v-30.84h-54.92v267.79h54.92V674.546
		c15.05,20.329,47.371,37.602,89.511,37.602c61.68,0,109.052-39.129,109.052-106.042s-47.372-104.561-109.052-104.561V501.499z
		 M1033.606,671.49c-29.312,0-54.919-14.309-72.979-36.86v-54.919c18.06-21.811,40.611-36.86,70.71-36.86
		c44.361,0,69.923,25.562,69.923,63.162c0,40.61-23.338,65.431-67.7,65.431L1033.606,671.49z"/>
	<rect x="790.266" y="509.001" fill="#FFFFFF" width="56.401" height="196.293"/>
	<path fill="#FFFFFF" d="M1313.39,501.499c-78.999,0-125.63,45.148-125.63,106.782c0,61.635,48.113,105.301,128.594,105.301
		c45.89,0,80.48-11.298,108.311-36.118l-29.313-32.322c-20.328,14.263-42.092,26.302-75.201,26.302
		c-43.621,0-68.441-16.531-75.201-51.909h186.521c0.741-3.01,1.482-6.761,1.482-13.521c0-66.172-48.899-104.561-119.609-104.561
		L1313.39,501.499z M1247.218,583.461c6.761-27.83,28.571-42.139,63.162-42.139s57.142,12.781,66.172,42.139h-129.38H1247.218z"/>
	<path fill="#FFFFFF" d="M818.096,427.779c-20.328,0-34.591,11.299-34.591,30.099c0,16.531,14.309,27.09,34.591,27.09
		s35.332-10.559,35.332-27.09C853.428,439.078,839.119,427.779,818.096,427.779L818.096,427.779z"/>
</g>
</svg>
